<svg width="52" height="52" viewBox="0 0 52 52" fill="none" xmlns="http://www.w3.org/2000/svg">
<path d="M52 26.0001C52 34.2461 48.1614 41.5954 42.1734 46.3585C37.7342 49.8906 32.1146 52 26.0001 52C19.8857 52 14.266 49.8906 9.82662 46.3585C3.83882 41.5954 0 34.2461 0 26.0001C0 11.6409 11.6411 0 26.0001 0C40.3591 0 52 11.6409 52 26.0001Z" fill="#EEEEEE"/>
<path d="M25.9998 34.2882C31.5805 34.2882 36.1046 29.7641 36.1046 24.1834C36.1046 18.6027 31.5805 14.0786 25.9998 14.0786C20.4191 14.0786 15.895 18.6027 15.895 24.1834C15.895 29.7641 20.4191 34.2882 25.9998 34.2882Z" fill="#8E8D8D"/>
<path d="M42.1734 46.3585C37.7343 49.8906 32.1146 52 26.0002 52C19.8857 52 14.2661 49.8906 9.82666 46.3585C13.0774 41.5829 19.1039 38.3757 26.0002 38.3757C32.8965 38.3757 38.9234 41.5822 42.1734 46.3585Z" fill="#8E8D8D"/>
</svg>
