<svg width="52" height="52" viewBox="0 0 52 52" fill="none" xmlns="http://www.w3.org/2000/svg">
<rect width="52" height="52" rx="10" fill="white"/>
<path d="M26 20.44V23.77" stroke="#ADA7A7" stroke-width="1.5" stroke-miterlimit="10" stroke-linecap="round"/>
<path d="M26.02 16C22.34 16 19.36 18.98 19.36 22.66V24.76C19.36 25.44 19.08 26.46 18.73 27.04L17.46 29.16C16.68 30.47 17.22 31.93 18.66 32.41C23.44 34 28.61 34 33.39 32.41C34.74 31.96 35.32 30.38 34.59 29.16L33.32 27.04C32.97 26.46 32.69 25.43 32.69 24.76V22.66C32.68 19 29.68 16 26.02 16Z" stroke="#ADA7A7" stroke-width="1.5" stroke-miterlimit="10" stroke-linecap="round"/>
<path d="M29.33 32.82C29.33 34.65 27.83 36.15 26 36.15C25.09 36.15 24.25 35.77 23.65 35.17C23.05 34.57 22.67 33.73 22.67 32.82" stroke="#ADA7A7" stroke-width="1.5" stroke-miterlimit="10"/>
</svg>
