<svg width="19" height="18" viewBox="0 0 19 18" fill="none" xmlns="http://www.w3.org/2000/svg">
<g opacity="0.2">
<mask id="path-1-outside-1_28_1035" maskUnits="userSpaceOnUse" x="-1" y="-1" width="21" height="20" fill="black">
<rect fill="white" x="-1" y="-1" width="21" height="20"/>
<path d="M15.096 6.96L14.184 11.28H17.496V13.2H13.776L12.744 18H10.656L11.688 13.2H6.648L5.616 18H3.528L4.56 13.2H0.792V11.28H4.968L5.88 6.96H2.16V5.04H6.288L7.32 0.24H9.408L8.376 5.04H13.416L14.448 0.24H16.536L15.504 5.04H18.84V6.96H15.096ZM13.008 6.96H7.968L7.056 11.28H12.096L13.008 6.96Z"/>
</mask>
<path d="M15.096 6.96L14.184 11.28H17.496V13.2H13.776L12.744 18H10.656L11.688 13.2H6.648L5.616 18H3.528L4.56 13.2H0.792V11.28H4.968L5.88 6.96H2.16V5.04H6.288L7.32 0.24H9.408L8.376 5.04H13.416L14.448 0.24H16.536L15.504 5.04H18.84V6.96H15.096ZM13.008 6.96H7.968L7.056 11.28H12.096L13.008 6.96Z" fill="#292D32"/>
<path d="M15.096 6.96V5.96H14.2851L14.1176 6.75344L15.096 6.96ZM14.184 11.28L13.2056 11.0734L12.9508 12.28H14.184V11.28ZM17.496 11.28H18.496V10.28H17.496V11.28ZM17.496 13.2V14.2H18.496V13.2H17.496ZM13.776 13.2V12.2H12.9681L12.7983 12.9898L13.776 13.2ZM12.744 18V19H13.5519L13.7217 18.2102L12.744 18ZM10.656 18L9.67834 17.7898L9.41815 19H10.656V18ZM11.688 13.2L12.6657 13.4102L12.9259 12.2H11.688V13.2ZM6.648 13.2V12.2H5.84015L5.67034 12.9898L6.648 13.2ZM5.616 18V19H6.42385L6.59366 18.2102L5.616 18ZM3.528 18L2.55034 17.7898L2.29015 19H3.528V18ZM4.56 13.2L5.53766 13.4102L5.79785 12.2H4.56V13.2ZM0.792 13.2H-0.208V14.2H0.792V13.2ZM0.792 11.28V10.28H-0.208V11.28H0.792ZM4.968 11.28V12.28H5.77893L5.94643 11.4866L4.968 11.28ZM5.88 6.96L6.85843 7.16656L7.11315 5.96H5.88V6.96ZM2.16 6.96H1.16V7.96H2.16V6.96ZM2.16 5.04V4.04H1.16V5.04H2.16ZM6.288 5.04V6.04H7.09585L7.26566 5.2502L6.288 5.04ZM7.32 0.24V-0.76H6.51215L6.34234 0.0298033L7.32 0.24ZM9.408 0.24L10.3857 0.450196L10.6459 -0.76H9.408V0.24ZM8.376 5.04L7.39834 4.8298L7.13815 6.04H8.376V5.04ZM13.416 5.04V6.04H14.2239L14.3937 5.2502L13.416 5.04ZM14.448 0.24V-0.76H13.6402L13.4703 0.0298033L14.448 0.24ZM16.536 0.24L17.5137 0.450196L17.7739 -0.76H16.536V0.24ZM15.504 5.04L14.5263 4.8298L14.2661 6.04H15.504V5.04ZM18.84 5.04H19.84V4.04H18.84V5.04ZM18.84 6.96V7.96H19.84V6.96H18.84ZM13.008 6.96L13.9864 7.16656L14.2412 5.96H13.008V6.96ZM7.968 6.96V5.96H7.15707L6.98957 6.75344L7.968 6.96ZM7.056 11.28L6.07757 11.0734L5.82285 12.28H7.056V11.28ZM12.096 11.28V12.28H12.9069L13.0744 11.4866L12.096 11.28ZM14.1176 6.75344L13.2056 11.0734L15.1624 11.4866L16.0744 7.16656L14.1176 6.75344ZM14.184 12.28H17.496V10.28H14.184V12.28ZM16.496 11.28V13.2H18.496V11.28H16.496ZM17.496 12.2H13.776V14.2H17.496V12.2ZM12.7983 12.9898L11.7663 17.7898L13.7217 18.2102L14.7537 13.4102L12.7983 12.9898ZM12.744 17H10.656V19H12.744V17ZM11.6337 18.2102L12.6657 13.4102L10.7103 12.9898L9.67834 17.7898L11.6337 18.2102ZM11.688 12.2H6.648V14.2H11.688V12.2ZM5.67034 12.9898L4.63834 17.7898L6.59366 18.2102L7.62566 13.4102L5.67034 12.9898ZM5.616 17H3.528V19H5.616V17ZM4.50566 18.2102L5.53766 13.4102L3.58234 12.9898L2.55034 17.7898L4.50566 18.2102ZM4.56 12.2H0.792V14.2H4.56V12.2ZM1.792 13.2V11.28H-0.208V13.2H1.792ZM0.792 12.28H4.968V10.28H0.792V12.28ZM5.94643 11.4866L6.85843 7.16656L4.90157 6.75344L3.98957 11.0734L5.94643 11.4866ZM5.88 5.96H2.16V7.96H5.88V5.96ZM3.16 6.96V5.04H1.16V6.96H3.16ZM2.16 6.04H6.288V4.04H2.16V6.04ZM7.26566 5.2502L8.29766 0.450196L6.34234 0.0298033L5.31034 4.8298L7.26566 5.2502ZM7.32 1.24H9.408V-0.76H7.32V1.24ZM8.43034 0.0298033L7.39834 4.8298L9.35366 5.2502L10.3857 0.450196L8.43034 0.0298033ZM8.376 6.04H13.416V4.04H8.376V6.04ZM14.3937 5.2502L15.4257 0.450196L13.4703 0.0298033L12.4383 4.8298L14.3937 5.2502ZM14.448 1.24H16.536V-0.76H14.448V1.24ZM15.5583 0.0298033L14.5263 4.8298L16.4817 5.2502L17.5137 0.450196L15.5583 0.0298033ZM15.504 6.04H18.84V4.04H15.504V6.04ZM17.84 5.04V6.96H19.84V5.04H17.84ZM18.84 5.96H15.096V7.96H18.84V5.96ZM13.008 5.96H7.968V7.96H13.008V5.96ZM6.98957 6.75344L6.07757 11.0734L8.03443 11.4866L8.94643 7.16656L6.98957 6.75344ZM7.056 12.28H12.096V10.28H7.056V12.28ZM13.0744 11.4866L13.9864 7.16656L12.0296 6.75344L11.1176 11.0734L13.0744 11.4866Z" fill="#292D32" fill-opacity="0.2" mask="url(#path-1-outside-1_28_1035)"/>
</g>
</svg>
